<svg xmlns="http://www.w3.org/2000/svg" viewBox="0 0 198.17 201.74">

    <g style="fill:#fff">
      <path d="M81.18,200.69h6.67v-30H81.18ZM46.34,152l7.89,10.63h3.14v-15.9H54.14v10.44l-7.81-10.44H43.12v15.9h3.22Zm35.82-5.27H68.69v3.37h5.08v12.53h3.42V150.05h5ZM61.41,192.46,55.06,170.7H49.74l-6.32,21.68L37.65,170.7H31.12l8.49,30h7.2l5.59-19.75L58,200.69H65.2l8.53-30H67.2Zm45.14-65.18h19.59a32.63,32.63,0,0,0,32.63-32.63v-62A32.63,32.63,0,0,0,126.14,0H106.45a.83.83,0,0,0-.83.83V126.35A.93.93,0,0,0,106.55,127.28ZM130.8,57.14A12.87,12.87,0,1,1,117.93,70,12.87,12.87,0,0,1,130.8,57.14ZM31.13,146.68H27.59v15.9h3.54ZM4.57,152l7.9,10.63h3.14v-15.9H12.38v10.44L4.56,146.68H1.35v15.9H4.57ZM14,182.51l-.18,0c-3.67-.65-6.83-1.2-7.12-3.35a2.11,2.11,0,0,1,.55-1.67c1-1.16,3.28-1.74,6.74-1.74a25.82,25.82,0,0,1,9.17,2.06l2.13-5.19a33.56,33.56,0,0,0-11.61-2.31c-6.48,0-13.37,3.16-13.37,9,0,4.75,3.35,7.17,12,8.65,6.06,1,9.4,1.62,9.31,4.23-.06,1.43-1.17,3.84-8,3.84a21.19,21.19,0,0,1-10.71-2.8L0,198.34a29.31,29.31,0,0,0,13.12,3.18c9.54,0,14.58-3.31,14.58-9.56C27.7,187.5,25.46,184.53,14,182.51ZM51.31,38.18a12,12,0,1,0,12-12A12,12,0,0,0,51.31,38.18Zm54.84,121.45H97V155.9h8.44V153H97V149.6h9.13v-2.92H93.79v15.89h12.36Zm74.37-13.48a8.48,8.48,0,1,0,8.46,8.48A8.48,8.48,0,0,0,180.52,146.15Zm0,13.43a5,5,0,1,1,4.93-5A4.95,4.95,0,0,1,180.52,159.58Zm1.08,22.94h-14V170.7h-6.2v30h6.2v-12h14v12h6.21v-30H181.6Zm8.71,15.07h1.26v3.1h.74v-3.1h1.23v-.73h-3.23Zm6.8-.78-1,2.81-1-2.81h-1.07v3.84h.69v-2.94l1,2.91v0h.66l0,0,1-2.91v2.94h.68v-3.84Zm-55.69-20.42a9.61,9.61,0,0,1,8.23,4.66l4.88-4.24a16,16,0,1,0,0,17.85l-4.88-4.25a9.61,9.61,0,0,1-8.23,4.66,9.34,9.34,0,1,1,0-18.68Zm-46.25.68h9.58v23.62h6.45V177.07h9.37V170.7H95.17Zm38.41-14.49v-15.9h-3.23v10.44l-7.81-10.44h-3.21v15.9h3.22V152l7.89,10.63ZM92,0H64.13A32.64,32.64,0,0,0,31.49,32.64v62a32.63,32.63,0,0,0,32.64,32.63H92a.93.93,0,0,0,.93-.93V.93A.93.93,0,0,0,92,0ZM82.62,117H64.13A22.38,22.38,0,0,1,41.75,94.65v-62A22.4,22.4,0,0,1,64.13,10.26H82.62Zm71,29.66H147v15.9h6.57a8,8,0,1,0,0-15.9Zm.16,12.56h-3.47V150h3.47a4.61,4.61,0,1,1,0,9.22Z"/>
    </g>

</svg>
