<svg xmlns="http://www.w3.org/2000/svg" viewBox="0 0 64.98 81.49">
  <g id="Layer_2" data-name="Layer 2">
    <g id="Layer_2-2" data-name="Layer 2">
      <g>
        <path d="M48.14,34.76c-1.79,0-3.41.68-8.42,4.25V58.23C48.39,48.54,50.86,41.9,50.86,38.5,50.86,36.12,49.75,34.76,48.14,34.76ZM48.82,22c0-3.41-3.92-6.21-9.1-6.55V33.23C46.26,29.4,48.82,25.58,48.82,22Zm15.39-7.54c-.08-.34-.17-.47-.34-.51l-6.12-1.62L56.9,8.85c0-.17-.09-.3-.26-.34l-6.29-1.7-.77-3.32a.46.46,0,0,0-.34-.42L32.89,0a2.21,2.21,0,0,0-.81,0l-16.35,3a.47.47,0,0,0-.34.42l-.76,3.32-6.3,1.7c-.17,0-.21.17-.25.34l-.85,3.49L1.11,14c-.17,0-.26.17-.34.51A43.72,43.72,0,0,0,0,22.72C0,47.21,12.76,68.47,31.81,81.15a1.64,1.64,0,0,0,.68.34,1.7,1.7,0,0,0,.68-.34C52.22,68.47,65,47.21,65,22.72A43.72,43.72,0,0,0,64.21,14.47ZM30.11,69.88c0,.17-.17.25-.34.08a50.37,50.37,0,0,1-9.95-19l-3.23,2c-.85.59-1.53.34-2-.6-4.34-7.65-7.14-20.24-7.4-29.08a1.52,1.52,0,0,1,.43-1.1,40.7,40.7,0,0,1,3.74-3.92c.25-.25.51-.08.51.34,0,10.89,1.87,21,4.84,27.64.26.51.51.51.85.26l.94-.6a130.44,130.44,0,0,1-2.55-30.61c0-.43.08-.6.34-.77a29.27,29.27,0,0,1,4.08-2.12c.43-.17.51-.09.51.25C20.59,30.34,22,42.58,25.18,52.36c.08.26.34.17.34-.08-.17-3.57-.17-6.72-.17-10.55l-.17-30.52c0-.34.08-.51.42-.6a34.28,34.28,0,0,1,4.25-.76c.17,0,.26.08.26.25Zm5.1.08c-.17.17-.34.09-.34-.08V10.1c0-.17.09-.25.26-.25,11.39.76,18.7,5.52,18.7,12.41a11.56,11.56,0,0,1-3,7.74C54.6,31,56,33.83,56,37.57,56,44.2,51.2,55.17,35.21,70Z" style="fill: #fff"/>
        <path d="M42,81l-.49-1.24h-.38v1.7h.26V80.15l.53,1.33h.16l.53-1.33v1.33h.26v-1.7h-.37Zm-2.62-1H40v1.44h.29V80h.62v-.26H39.36Z" style="fill: #fff"/>
      </g>
    </g>
  </g>
</svg>
